<?xml version="1.0" encoding="UTF-8" standalone="no"?>
<!DOCTYPE svg PUBLIC "-//W3C//DTD SVG 1.1//EN" "http://www.w3.org/Graphics/SVG/1.1/DTD/svg11.dtd">
<svg width="100%" height="100%" viewBox="0 0 16 16" version="1.1" xmlns="http://www.w3.org/2000/svg" xmlns:xlink="http://www.w3.org/1999/xlink" xml:space="preserve" xmlns:serif="http://www.serif.com/" style="fill-rule:evenodd;clip-rule:evenodd;stroke-linejoin:round;stroke-miterlimit:2;">
    <g transform="matrix(0.0392259,0,0,0.0392259,7.98819,7.86443)">
        <g id="nuxt-active">
            <g id="nuxt-light" transform="matrix(1,0,0,1,-200,-149)">
                <g>
                    <path d="M227.921,82.074L214.232,105.778L167.417,24.691L23.704,273.58L121.007,273.58C121.007,286.671 131.62,297.284 144.711,297.284L23.704,297.284C15.236,297.284 7.412,292.764 3.179,285.43C-1.054,278.096 -1.054,269.062 3.18,261.728L146.894,12.84C151.128,5.505 158.953,0.987 167.422,0.987C175.891,0.987 183.716,5.505 187.951,12.84L227.921,82.074Z" style="fill:rgb(0,197,142);fill-rule:nonzero;"/>
                    <path d="M331.664,261.728L241.61,105.778L227.921,82.074L214.232,105.778L124.188,261.728C119.954,269.062 119.953,278.096 124.187,285.43C128.42,292.764 136.243,297.284 144.711,297.284L311.111,297.284C319.581,297.284 327.408,292.769 331.643,285.434C335.879,278.1 335.879,269.063 331.644,261.728L331.664,261.728ZM144.711,273.58L227.921,129.481L311.111,273.58L144.711,273.58L144.711,273.58Z" style="fill:rgb(47,73,94);fill-rule:nonzero;"/>
                    <path d="M396.049,285.432C391.816,292.765 383.993,297.284 375.526,297.284L311.111,297.284C324.202,297.284 334.815,286.671 334.815,273.58L375.477,273.58L260.099,73.748L241.61,105.778L227.921,82.074L239.575,61.896C243.809,54.562 251.635,50.044 260.104,50.044C268.572,50.044 276.398,54.562 280.632,61.896L396.049,261.728C400.284,269.062 400.284,278.098 396.049,285.432L396.049,285.432Z" style="fill:rgb(16,135,117);fill-rule:nonzero;"/>
                </g>
            </g>
            <g id="nuxt-light1" serif:id="nuxt-light">
            </g>
        </g>
    </g>
</svg>
