<?xml version="1.0" encoding="UTF-8" standalone="no"?>
<!DOCTYPE svg PUBLIC "-//W3C//DTD SVG 1.1//EN" "http://www.w3.org/Graphics/SVG/1.1/DTD/svg11.dtd">
<svg width="100%" height="100%" viewBox="0 0 16 16" version="1.1" xmlns="http://www.w3.org/2000/svg" xmlns:xlink="http://www.w3.org/1999/xlink" xml:space="preserve" xmlns:serif="http://www.serif.com/" style="fill-rule:evenodd;clip-rule:evenodd;stroke-linejoin:round;stroke-miterlimit:2;">
    <g id="react-light" transform="matrix(1,0,0,1,-0.000205767,0.00341087)">
        <g id="React-icon.svg" transform="matrix(0.685992,0,0,0.685992,8.01848,8.05833)">
            <g id="react-light1" serif:id="react-light">
                <g id="React-icon.svg1" serif:id="React-icon.svg" transform="matrix(1,0,0,1,-11.5,-10.2317)">
                    <clipPath id="_clip1">
                        <rect x="0" y="0" width="23" height="20.463"/>
                    </clipPath>
                    <g clip-path="url(#_clip1)">
                        <g transform="matrix(1,0,0,1,11.5,10.2317)">
                            <circle cx="0" cy="0" r="2.05" style="fill:rgb(88,94,111);stroke:rgb(88,94,111);stroke-width:1px;"/>
                        </g>
                        <g transform="matrix(1,0,0,1,11.5,10.2317)">
                            <ellipse cx="0" cy="0" rx="11" ry="4.2" style="fill:none;stroke:rgb(88,94,111);stroke-width:1px;stroke-linejoin:miter;stroke-miterlimit:4;"/>
                            <g transform="matrix(0.5,0.866025,-0.866025,0.5,0,0)">
                                <ellipse cx="0" cy="0" rx="11" ry="4.2" style="fill:none;stroke:rgb(88,94,111);stroke-width:1px;stroke-linejoin:miter;stroke-miterlimit:4;"/>
                            </g>
                            <g transform="matrix(-0.5,0.866025,-0.866025,-0.5,0,0)">
                                <ellipse cx="0" cy="0" rx="11" ry="4.2" style="fill:none;stroke:rgb(88,94,111);stroke-width:1px;stroke-linejoin:miter;stroke-miterlimit:4;"/>
                            </g>
                        </g>
                    </g>
                </g>
                <g id="React-icon.svg2" serif:id="React-icon.svg">
                </g>
            </g>
        </g>
    </g>
</svg>
